# xmcd CD database file
#
# Track frame offsets:
#	150
#	11817
#	23302
#	35530
#	49800
#	62360
#	72685
#	87512
#	100102
#	113597
#	127700
#	141010
#	154122
#	164092
#	176175
#	191352
#	204697
#	219577
#	234800
#	248577
#	263365
#	277737
#	290245
#	303095
#
# Disc length: 4225 seconds
#
# Revision: 0
# Processed by: cddbd v1.4PL0 Copyright (c) Steve Scherf et al.
# Submitted via: CDex 1.50
#
DISCID=45107f18
DTITLE=Muddy Waters - Walkin' Blues
DYEAR=1995
DGENRE=Blues
TTITLE0=Gypsy Woman
TTITLE1=Little Ana Mae
TTITLE2=I Can't be Satisfied
TTITLE3=I feel like going Home
TTITLE4=Train Fare Home Blues
TTITLE5=Mean Red Spider
TTITLE6=Streamline Woman
TTITLE7=Little Geneva
TTITLE8=Rollin' an' Tumblin'
TTITLE9=Rolling Stone
TTITLE10=Walkin' Blues
TTITLE11=Louisiana Blues
TTITLE12=Evans Shuffle
TTITLE13=Long Distance
TTITLE14=Honey Bee
TTITLE15=She Moves Me
TTITLE16=Still a Fool
TTITLE17=Standing Around Crying
TTITLE18=Who's gonna be your sweet man when I'm gone
TTITLE19=baby please don't go
TTITLE20=Blow Wind Blow'
TTITLE21=Hoochie Coochie Man
TTITLE22=I Just Want to Make Love to You
TTITLE23=I'm Ready
EXTD=YEAR: 1995
EXTT0=
EXTT1=
EXTT2=
EXTT3=
EXTT4=
EXTT5=
EXTT6=
EXTT7=
EXTT8=
EXTT9=
EXTT10=
EXTT11=
EXTT12=
EXTT13=
EXTT14=
EXTT15=
EXTT16=
EXTT17=
EXTT18=
EXTT19=
EXTT20=
EXTT21=
EXTT22=
EXTT23=
PLAYORDER=
